<?xml version="1.0" encoding="UTF-8"?>
<svg id="Layer_2" data-name="Layer 2" xmlns="http://www.w3.org/2000/svg" viewBox="0 0 881.92 210.1">
  <defs>
    <style>
      .cls-1 {
        fill: #1d4231;
      }

      .cls-1, .cls-2, .cls-3 {
        stroke-width: 0px;
      }

      .cls-2 {
        fill: #ffef8f;
      }

      .cls-3 {
        fill: #272829;
      }
    </style>
  </defs>
  <g id="OBJECTS">
    <g>
      <g>
        <circle class="cls-1" cx="105.05" cy="105.05" r="105.05"/>
        <g>
          <g>
            <path class="cls-2" d="M105.05,118.62h0c-26.83,0-48.59-21.75-48.59-48.59h0s0,0,0,0c26.83,0,48.59,21.75,48.59,48.59h0Z"/>
            <path class="cls-2" d="M153.64,70.03h0c0,26.83-21.75,48.59-48.59,48.59h0c0-26.83,21.75-48.59,48.59-48.59h0Z"/>
            <path class="cls-2" d="M105.05,49.9h0c18.98,18.98,18.98,49.74,0,68.71h0s0,0,0,0c-18.98-18.98-18.98-49.74,0-68.71h0Z"/>
          </g>
          <g>
            <path class="cls-2" d="M105.05,160.2h0c-26.83,0-48.59-21.75-48.59-48.59h0s0,0,0,0c26.83,0,48.59,21.75,48.59,48.59h0Z"/>
            <path class="cls-2" d="M105.05,160.2h0c0-26.83,21.75-48.59,48.59-48.59h0c0,26.83-21.75,48.59-48.59,48.59h0Z"/>
          </g>
        </g>
      </g>
      <g>
        <path class="cls-3" d="M302.34,80.35v61.21h-11.63l-30.52-37.17v37.17h-13.99v-61.21h11.72l30.43,37.17v-37.17h13.99Z"/>
        <path class="cls-3" d="M363.29,94.52v47.05h-12.94v-5.6c-3.59,4.11-8.83,6.3-14.6,6.3-11.81,0-20.11-6.65-20.11-21.16v-26.58h13.64v24.57c0,7.87,3.5,11.37,9.53,11.37s10.84-4.02,10.84-12.68v-23.26h13.64Z"/>
        <path class="cls-3" d="M406.31,139.29c-2.8,2.01-6.91,2.97-11.11,2.97-11.11,0-17.58-5.68-17.58-16.88v-19.33h-7.26v-10.49h7.26v-11.46h13.64v11.46h11.72v10.49h-11.72v19.15c0,4.02,2.19,6.21,5.86,6.21,2.01,0,4.02-.61,5.51-1.75l3.67,9.62Z"/>
        <path class="cls-3" d="M443.21,93.82v12.59c-1.14-.09-2.01-.17-3.06-.17-7.52,0-12.5,4.11-12.5,13.12v22.21h-13.64v-47.05h13.03v6.21c3.32-4.55,8.92-6.91,16.18-6.91Z"/>
        <path class="cls-3" d="M449.68,80.35c0-4.28,3.41-7.61,8.48-7.61s8.48,3.15,8.48,7.35c0,4.55-3.41,7.87-8.48,7.87s-8.48-3.32-8.48-7.61ZM451.34,94.52h13.64v47.05h-13.64v-47.05Z"/>
        <path class="cls-3" d="M508.01,139.29c-2.8,2.01-6.91,2.97-11.11,2.97-11.11,0-17.58-5.68-17.58-16.88v-19.33h-7.26v-10.49h7.26v-11.46h13.64v11.46h11.72v10.49h-11.72v19.15c0,4.02,2.19,6.21,5.86,6.21,2.01,0,4.02-.61,5.51-1.75l3.67,9.62Z"/>
        <path class="cls-3" d="M560.04,121.89h-35.59c1.31,5.86,6.3,9.44,13.47,9.44,4.98,0,8.57-1.49,11.8-4.55l7.26,7.87c-4.37,4.98-10.93,7.61-19.41,7.61-16.26,0-26.85-10.23-26.85-24.22s10.76-24.22,25.1-24.22,24.49,9.27,24.49,24.4c0,1.05-.18,2.54-.26,3.67ZM524.27,113.93h23.17c-.96-5.95-5.42-9.79-11.54-9.79s-10.67,3.76-11.63,9.79Z"/>
        <path class="cls-3" d="M565.89,118.04c0-14.17,10.93-24.22,26.23-24.22,9.88,0,17.66,4.28,21.07,11.98l-10.58,5.68c-2.54-4.46-6.3-6.47-10.58-6.47-6.91,0-12.33,4.81-12.33,13.03s5.42,13.03,12.33,13.03c4.29,0,8.04-1.92,10.58-6.47l10.58,5.77c-3.41,7.52-11.19,11.89-21.07,11.89-15.3,0-26.23-10.06-26.23-24.22Z"/>
        <path class="cls-3" d="M668.82,114.63v26.93h-13.64v-24.83c0-7.61-3.5-11.11-9.53-11.11-6.56,0-11.28,4.02-11.28,12.68v23.26h-13.64v-64.89h13.64v22.74c3.67-3.67,8.92-5.6,14.95-5.6,11.11,0,19.5,6.47,19.5,20.81Z"/>
        <path class="cls-3" d="M722.77,114.72v26.85h-12.77v-5.86c-2.54,4.28-7.43,6.56-14.34,6.56-11.02,0-17.58-6.12-17.58-14.25s5.86-14.08,20.2-14.08h10.84c0-5.86-3.5-9.27-10.84-9.27-4.99,0-10.14,1.66-13.55,4.37l-4.9-9.53c5.16-3.67,12.77-5.68,20.29-5.68,14.34,0,22.65,6.65,22.65,20.9ZM709.13,126.7v-4.81h-9.36c-6.38,0-8.4,2.36-8.4,5.51,0,3.41,2.89,5.68,7.7,5.68,4.55,0,8.48-2.1,10.06-6.38Z"/>
        <path class="cls-3" d="M784.16,94.52v39.18c0,17.49-9.44,25.54-26.41,25.54-8.92,0-17.58-2.19-23.09-6.47l5.42-9.79c4.02,3.24,10.58,5.33,16.62,5.33,9.62,0,13.82-4.37,13.82-12.85v-2.01c-3.59,3.94-8.75,5.86-14.87,5.86-13.03,0-23.52-9.01-23.52-22.74s10.49-22.74,23.52-22.74c6.56,0,11.98,2.19,15.57,6.73v-6.03h12.94ZM770.69,116.56c0-6.91-5.16-11.54-12.33-11.54s-12.42,4.63-12.42,11.54,5.25,11.54,12.42,11.54,12.33-4.63,12.33-11.54Z"/>
        <path class="cls-3" d="M826.04,93.82v12.59c-1.14-.09-2.01-.17-3.06-.17-7.52,0-12.5,4.11-12.5,13.12v22.21h-13.64v-47.05h13.03v6.21c3.32-4.55,8.92-6.91,16.18-6.91Z"/>
        <path class="cls-3" d="M830.24,118.04c0-14.17,10.93-24.22,25.88-24.22s25.8,10.06,25.8,24.22-10.84,24.22-25.8,24.22-25.88-10.06-25.88-24.22ZM868.1,118.04c0-8.13-5.16-13.03-11.98-13.03s-12.07,4.9-12.07,13.03,5.25,13.03,12.07,13.03,11.98-4.9,11.98-13.03Z"/>
      </g>
    </g>
  </g>
</svg>